<mxfile host="app.diagrams.net" agent="Mozilla/5.0 (Windows NT 10.0; Win64; x64) AppleWebKit/537.36 (KHTML, like Gecko) Chrome/127.0.0.0 Safari/537.36" version="24.7.7">
  <diagram id="prtHgNgQTEPvFCAcTncT" name="Page-1">
    <mxGraphModel dx="1723" dy="1207" grid="1" gridSize="10" guides="1" tooltips="1" connect="1" arrows="1" fold="1" page="1" pageScale="1" pageWidth="827" pageHeight="1169" math="0" shadow="0">
      <root>
        <mxCell id="0" />
        <mxCell id="1" parent="0" />
        <mxCell id="dNxyNK7c78bLwvsdeMH5-19" value="Fluxo Arkoz" style="swimlane;html=1;childLayout=stackLayout;resizeParent=1;resizeParentMax=0;horizontal=0;startSize=20;horizontalStack=0;rounded=1;labelBackgroundColor=none;" parent="1" vertex="1">
          <mxGeometry x="240" y="185" width="3320" height="800" as="geometry" />
        </mxCell>
        <mxCell id="dNxyNK7c78bLwvsdeMH5-20" value="Cliente" style="swimlane;html=1;startSize=20;horizontal=0;rounded=1;labelBackgroundColor=none;" parent="dNxyNK7c78bLwvsdeMH5-19" vertex="1">
          <mxGeometry x="20" width="3300" height="120" as="geometry" />
        </mxCell>
        <mxCell id="GoYFg1bczMCrbbcXfbrg-11" value="" style="edgeStyle=orthogonalEdgeStyle;rounded=1;orthogonalLoop=1;jettySize=auto;html=1;labelBackgroundColor=none;fontColor=default;" parent="dNxyNK7c78bLwvsdeMH5-20" source="dNxyNK7c78bLwvsdeMH5-23" target="GoYFg1bczMCrbbcXfbrg-9" edge="1">
          <mxGeometry relative="1" as="geometry" />
        </mxCell>
        <mxCell id="dNxyNK7c78bLwvsdeMH5-23" value="" style="ellipse;whiteSpace=wrap;html=1;rounded=1;labelBackgroundColor=none;" parent="dNxyNK7c78bLwvsdeMH5-20" vertex="1">
          <mxGeometry x="30" y="50" width="20" height="20" as="geometry" />
        </mxCell>
        <mxCell id="GoYFg1bczMCrbbcXfbrg-9" value="Solicitar &quot;Empréstimo&quot;" style="rounded=1;whiteSpace=wrap;html=1;labelBackgroundColor=none;" parent="dNxyNK7c78bLwvsdeMH5-20" vertex="1">
          <mxGeometry x="80" y="30" width="120" height="60" as="geometry" />
        </mxCell>
        <mxCell id="GoYFg1bczMCrbbcXfbrg-40" value="Assinar CCB" style="whiteSpace=wrap;html=1;rounded=1;labelBackgroundColor=none;" parent="dNxyNK7c78bLwvsdeMH5-20" vertex="1">
          <mxGeometry x="1252.5" y="30" width="120" height="60" as="geometry" />
        </mxCell>
        <mxCell id="GoYFg1bczMCrbbcXfbrg-76" value="Pagamento do Boleto" style="whiteSpace=wrap;html=1;rounded=1;labelBackgroundColor=none;" parent="dNxyNK7c78bLwvsdeMH5-20" vertex="1">
          <mxGeometry x="2755" y="30" width="120" height="60" as="geometry" />
        </mxCell>
        <mxCell id="dNxyNK7c78bLwvsdeMH5-21" value="Clinica" style="swimlane;html=1;startSize=20;horizontal=0;rounded=1;labelBackgroundColor=none;" parent="dNxyNK7c78bLwvsdeMH5-19" vertex="1">
          <mxGeometry x="20" y="120" width="3300" height="160" as="geometry" />
        </mxCell>
        <mxCell id="GoYFg1bczMCrbbcXfbrg-16" value="" style="edgeStyle=orthogonalEdgeStyle;rounded=1;orthogonalLoop=1;jettySize=auto;html=1;labelBackgroundColor=none;fontColor=default;" parent="dNxyNK7c78bLwvsdeMH5-21" source="GoYFg1bczMCrbbcXfbrg-13" target="GoYFg1bczMCrbbcXfbrg-15" edge="1">
          <mxGeometry relative="1" as="geometry" />
        </mxCell>
        <mxCell id="GoYFg1bczMCrbbcXfbrg-13" value="Inserir Dados da Operação&lt;br&gt;(Simulação)&lt;br&gt;&lt;div&gt;&lt;br&gt;&lt;/div&gt;&lt;div&gt;&lt;b&gt;Plataforma&lt;/b&gt;&lt;br&gt;&lt;/div&gt;" style="whiteSpace=wrap;html=1;rounded=1;labelBackgroundColor=none;" parent="dNxyNK7c78bLwvsdeMH5-21" vertex="1">
          <mxGeometry x="65" y="45" width="150" height="70" as="geometry" />
        </mxCell>
        <mxCell id="GoYFg1bczMCrbbcXfbrg-15" value="Inserir Dados Pessoais&lt;br&gt;(Obrigatórios para motor)&lt;br&gt;&lt;b&gt;Plataforma&lt;/b&gt;" style="whiteSpace=wrap;html=1;rounded=1;labelBackgroundColor=none;" parent="dNxyNK7c78bLwvsdeMH5-21" vertex="1">
          <mxGeometry x="230" y="45" width="160" height="70" as="geometry" />
        </mxCell>
        <mxCell id="GoYFg1bczMCrbbcXfbrg-84" value="" style="edgeStyle=orthogonalEdgeStyle;rounded=1;orthogonalLoop=1;jettySize=auto;html=1;labelBackgroundColor=none;fontColor=default;" parent="dNxyNK7c78bLwvsdeMH5-21" source="GoYFg1bczMCrbbcXfbrg-27" target="GoYFg1bczMCrbbcXfbrg-83" edge="1">
          <mxGeometry relative="1" as="geometry" />
        </mxCell>
        <mxCell id="GoYFg1bczMCrbbcXfbrg-27" value="Selecionar Oferta Desejada&lt;div&gt;&lt;br&gt;&lt;/div&gt;&lt;div&gt;&lt;b&gt;Plataforma&lt;/b&gt;&lt;br&gt;&lt;/div&gt;" style="whiteSpace=wrap;html=1;rounded=1;labelBackgroundColor=none;" parent="dNxyNK7c78bLwvsdeMH5-21" vertex="1">
          <mxGeometry x="420" y="50" width="120" height="60" as="geometry" />
        </mxCell>
        <mxCell id="GoYFg1bczMCrbbcXfbrg-32" value="" style="edgeStyle=orthogonalEdgeStyle;rounded=1;orthogonalLoop=1;jettySize=auto;html=1;labelBackgroundColor=none;fontColor=default;" parent="dNxyNK7c78bLwvsdeMH5-21" source="GoYFg1bczMCrbbcXfbrg-29" target="GoYFg1bczMCrbbcXfbrg-31" edge="1">
          <mxGeometry relative="1" as="geometry" />
        </mxCell>
        <mxCell id="GoYFg1bczMCrbbcXfbrg-29" value="Upload de documentos&lt;br&gt;(Doc identificação com foto, Selfie e Comprovante de Endereço&lt;span style=&quot;background-color: initial;&quot;&gt;)&lt;br&gt;&lt;br&gt;&lt;/span&gt;&lt;b&gt;Plataforma&lt;/b&gt;&lt;span style=&quot;background-color: initial;&quot;&gt;&lt;br&gt;&lt;/span&gt;" style="whiteSpace=wrap;html=1;rounded=1;labelBackgroundColor=none;" parent="dNxyNK7c78bLwvsdeMH5-21" vertex="1">
          <mxGeometry x="790" y="35" width="180" height="90" as="geometry" />
        </mxCell>
        <mxCell id="GoYFg1bczMCrbbcXfbrg-31" value="Validação de documentação" style="rhombus;whiteSpace=wrap;html=1;rounded=1;labelBackgroundColor=none;" parent="dNxyNK7c78bLwvsdeMH5-21" vertex="1">
          <mxGeometry x="1020" y="25" width="110" height="110" as="geometry" />
        </mxCell>
        <mxCell id="GoYFg1bczMCrbbcXfbrg-35" value="" style="ellipse;whiteSpace=wrap;html=1;aspect=fixed;rounded=1;labelBackgroundColor=none;" parent="dNxyNK7c78bLwvsdeMH5-21" vertex="1">
          <mxGeometry x="1170" y="70" width="20" height="20" as="geometry" />
        </mxCell>
        <mxCell id="GoYFg1bczMCrbbcXfbrg-34" value="" style="edgeStyle=orthogonalEdgeStyle;rounded=1;orthogonalLoop=1;jettySize=auto;html=1;labelBackgroundColor=none;fontColor=default;" parent="dNxyNK7c78bLwvsdeMH5-21" source="GoYFg1bczMCrbbcXfbrg-31" target="GoYFg1bczMCrbbcXfbrg-35" edge="1">
          <mxGeometry relative="1" as="geometry">
            <mxPoint x="1020" y="80" as="targetPoint" />
          </mxGeometry>
        </mxCell>
        <mxCell id="GoYFg1bczMCrbbcXfbrg-85" value="" style="edgeStyle=orthogonalEdgeStyle;rounded=1;orthogonalLoop=1;jettySize=auto;html=1;labelBackgroundColor=none;fontColor=default;" parent="dNxyNK7c78bLwvsdeMH5-21" source="GoYFg1bczMCrbbcXfbrg-83" target="GoYFg1bczMCrbbcXfbrg-29" edge="1">
          <mxGeometry relative="1" as="geometry" />
        </mxCell>
        <mxCell id="GoYFg1bczMCrbbcXfbrg-83" value="&lt;span style=&quot;background-color: initial;&quot;&gt;Dados cadastrais Cliente&lt;br&gt;&lt;br&gt;&lt;/span&gt;&lt;b&gt;Plataforma&lt;/b&gt;&lt;span style=&quot;background-color: initial;&quot;&gt;&lt;br&gt;&lt;/span&gt;" style="whiteSpace=wrap;html=1;rounded=1;labelBackgroundColor=none;" parent="dNxyNK7c78bLwvsdeMH5-21" vertex="1">
          <mxGeometry x="580" y="35" width="180" height="90" as="geometry" />
        </mxCell>
        <mxCell id="dNxyNK7c78bLwvsdeMH5-22" value="SCD" style="swimlane;html=1;startSize=20;horizontal=0;rounded=1;labelBackgroundColor=none;" parent="dNxyNK7c78bLwvsdeMH5-19" vertex="1">
          <mxGeometry x="20" y="280" width="3300" height="360" as="geometry" />
        </mxCell>
        <mxCell id="dNxyNK7c78bLwvsdeMH5-37" value="" style="edgeStyle=orthogonalEdgeStyle;rounded=1;orthogonalLoop=1;jettySize=auto;html=1;endArrow=classic;endFill=1;labelBackgroundColor=none;fontColor=default;" parent="dNxyNK7c78bLwvsdeMH5-22" edge="1">
          <mxGeometry relative="1" as="geometry">
            <mxPoint x="320" y="50" as="sourcePoint" />
          </mxGeometry>
        </mxCell>
        <mxCell id="GoYFg1bczMCrbbcXfbrg-25" value="" style="edgeStyle=orthogonalEdgeStyle;rounded=1;orthogonalLoop=1;jettySize=auto;html=1;labelBackgroundColor=none;fontColor=default;exitX=1;exitY=0.5;exitDx=0;exitDy=0;" parent="dNxyNK7c78bLwvsdeMH5-22" source="GoYFg1bczMCrbbcXfbrg-19" target="GoYFg1bczMCrbbcXfbrg-24" edge="1">
          <mxGeometry relative="1" as="geometry" />
        </mxCell>
        <mxCell id="GoYFg1bczMCrbbcXfbrg-26" value="Aprovado" style="edgeLabel;html=1;align=center;verticalAlign=middle;resizable=0;points=[];rounded=1;labelBackgroundColor=none;" parent="GoYFg1bczMCrbbcXfbrg-25" vertex="1" connectable="0">
          <mxGeometry x="0.4438" y="-1" relative="1" as="geometry">
            <mxPoint x="-22" y="-11" as="offset" />
          </mxGeometry>
        </mxCell>
        <mxCell id="GoYFg1bczMCrbbcXfbrg-19" value="Motor de crédito" style="rhombus;whiteSpace=wrap;html=1;rounded=1;labelBackgroundColor=none;" parent="dNxyNK7c78bLwvsdeMH5-22" vertex="1">
          <mxGeometry x="270" y="30" width="80" height="80" as="geometry" />
        </mxCell>
        <mxCell id="GoYFg1bczMCrbbcXfbrg-24" value="Elabora Oferta de Crédito&lt;br&gt;&lt;br&gt;&lt;b&gt;Plataforma&lt;/b&gt;" style="whiteSpace=wrap;html=1;rounded=1;labelBackgroundColor=none;" parent="dNxyNK7c78bLwvsdeMH5-22" vertex="1">
          <mxGeometry x="420" y="40" width="120" height="60" as="geometry" />
        </mxCell>
        <mxCell id="GoYFg1bczMCrbbcXfbrg-39" value="" style="edgeStyle=orthogonalEdgeStyle;rounded=1;orthogonalLoop=1;jettySize=auto;html=1;labelBackgroundColor=none;fontColor=default;" parent="dNxyNK7c78bLwvsdeMH5-22" source="GoYFg1bczMCrbbcXfbrg-36" target="GoYFg1bczMCrbbcXfbrg-38" edge="1">
          <mxGeometry relative="1" as="geometry" />
        </mxCell>
        <mxCell id="GoYFg1bczMCrbbcXfbrg-36" value="Emissão de CCB&lt;br&gt;&lt;br&gt;&lt;b&gt;Plataforma&lt;/b&gt;" style="whiteSpace=wrap;html=1;rounded=1;labelBackgroundColor=none;" parent="dNxyNK7c78bLwvsdeMH5-22" vertex="1">
          <mxGeometry x="1015" y="80" width="120" height="60" as="geometry" />
        </mxCell>
        <mxCell id="GoYFg1bczMCrbbcXfbrg-38" value="Submeter CCB para assinatura Eletrônica&amp;nbsp;&lt;br&gt;(WhatsApp)&lt;div&gt;&lt;br&gt;&lt;/div&gt;&lt;div&gt;&lt;b&gt;Plataforma&lt;/b&gt;&lt;br&gt;&lt;/div&gt;" style="whiteSpace=wrap;html=1;rounded=1;labelBackgroundColor=none;" parent="dNxyNK7c78bLwvsdeMH5-22" vertex="1">
          <mxGeometry x="1229" y="70" width="165" height="80" as="geometry" />
        </mxCell>
        <mxCell id="GoYFg1bczMCrbbcXfbrg-45" value="" style="edgeStyle=orthogonalEdgeStyle;rounded=1;orthogonalLoop=1;jettySize=auto;html=1;labelBackgroundColor=none;fontColor=default;" parent="dNxyNK7c78bLwvsdeMH5-22" source="GoYFg1bczMCrbbcXfbrg-42" target="GoYFg1bczMCrbbcXfbrg-44" edge="1">
          <mxGeometry relative="1" as="geometry" />
        </mxCell>
        <mxCell id="GoYFg1bczMCrbbcXfbrg-42" value="Conclui assinatura da CCB&lt;div&gt;&lt;br&gt;&lt;/div&gt;&lt;div&gt;&lt;b&gt;Plataforma&lt;/b&gt;&lt;br&gt;&lt;/div&gt;" style="whiteSpace=wrap;html=1;rounded=1;labelBackgroundColor=none;" parent="dNxyNK7c78bLwvsdeMH5-22" vertex="1">
          <mxGeometry x="1440" y="80" width="120" height="60" as="geometry" />
        </mxCell>
        <mxCell id="GoYFg1bczMCrbbcXfbrg-44" value="Liquidação da CCB" style="shape=process;whiteSpace=wrap;html=1;backgroundOutline=1;rounded=1;labelBackgroundColor=none;" parent="dNxyNK7c78bLwvsdeMH5-22" vertex="1">
          <mxGeometry x="1570" y="195" width="120" height="60" as="geometry" />
        </mxCell>
        <mxCell id="GoYFg1bczMCrbbcXfbrg-48" value="Retem o IOF e a tarifa do custo de emissão.&amp;nbsp;" style="whiteSpace=wrap;html=1;rounded=1;labelBackgroundColor=none;" parent="dNxyNK7c78bLwvsdeMH5-22" vertex="1">
          <mxGeometry x="1790" y="70" width="120" height="60" as="geometry" />
        </mxCell>
        <mxCell id="GoYFg1bczMCrbbcXfbrg-60" value="" style="edgeStyle=orthogonalEdgeStyle;rounded=1;orthogonalLoop=1;jettySize=auto;html=1;labelBackgroundColor=none;fontColor=default;" parent="dNxyNK7c78bLwvsdeMH5-22" source="GoYFg1bczMCrbbcXfbrg-50" target="GoYFg1bczMCrbbcXfbrg-59" edge="1">
          <mxGeometry relative="1" as="geometry" />
        </mxCell>
        <mxCell id="GoYFg1bczMCrbbcXfbrg-50" value="Débito C/C Escrow SCD" style="whiteSpace=wrap;html=1;rounded=1;labelBackgroundColor=none;" parent="dNxyNK7c78bLwvsdeMH5-22" vertex="1">
          <mxGeometry x="1980" y="10" width="120" height="60" as="geometry" />
        </mxCell>
        <mxCell id="GoYFg1bczMCrbbcXfbrg-53" value="" style="endArrow=none;dashed=1;html=1;dashPattern=1 3;strokeWidth=2;rounded=1;exitX=1;exitY=0.5;exitDx=0;exitDy=0;entryX=0;entryY=0.5;entryDx=0;entryDy=0;labelBackgroundColor=none;fontColor=default;" parent="dNxyNK7c78bLwvsdeMH5-22" source="GoYFg1bczMCrbbcXfbrg-48" target="GoYFg1bczMCrbbcXfbrg-50" edge="1">
          <mxGeometry width="50" height="50" relative="1" as="geometry">
            <mxPoint x="2050" y="250" as="sourcePoint" />
            <mxPoint x="2100" y="200" as="targetPoint" />
          </mxGeometry>
        </mxCell>
        <mxCell id="GoYFg1bczMCrbbcXfbrg-54" value="Fecha lote diário de CCB&#39;s e Emite o Termo de CESSÃO para aassinatura" style="whiteSpace=wrap;html=1;rounded=1;labelBackgroundColor=none;" parent="dNxyNK7c78bLwvsdeMH5-22" vertex="1">
          <mxGeometry x="1970" y="130" width="140" height="70" as="geometry" />
        </mxCell>
        <mxCell id="GoYFg1bczMCrbbcXfbrg-56" value="" style="endArrow=none;dashed=1;html=1;dashPattern=1 3;strokeWidth=2;rounded=1;exitX=1;exitY=0.5;exitDx=0;exitDy=0;entryX=0;entryY=0.5;entryDx=0;entryDy=0;labelBackgroundColor=none;fontColor=default;" parent="dNxyNK7c78bLwvsdeMH5-22" source="GoYFg1bczMCrbbcXfbrg-48" target="GoYFg1bczMCrbbcXfbrg-54" edge="1">
          <mxGeometry width="50" height="50" relative="1" as="geometry">
            <mxPoint x="1920" y="160" as="sourcePoint" />
            <mxPoint x="1970" y="110" as="targetPoint" />
          </mxGeometry>
        </mxCell>
        <mxCell id="GoYFg1bczMCrbbcXfbrg-59" value="Liberação do Pagamento - Crédito C/C Escrow Arkoz" style="whiteSpace=wrap;html=1;rounded=1;labelBackgroundColor=none;" parent="dNxyNK7c78bLwvsdeMH5-22" vertex="1">
          <mxGeometry x="2180" y="10" width="120" height="60" as="geometry" />
        </mxCell>
        <mxCell id="GoYFg1bczMCrbbcXfbrg-64" value="" style="edgeStyle=orthogonalEdgeStyle;rounded=1;orthogonalLoop=1;jettySize=auto;html=1;labelBackgroundColor=none;fontColor=default;" parent="dNxyNK7c78bLwvsdeMH5-22" source="GoYFg1bczMCrbbcXfbrg-61" target="GoYFg1bczMCrbbcXfbrg-63" edge="1">
          <mxGeometry relative="1" as="geometry" />
        </mxCell>
        <mxCell id="GoYFg1bczMCrbbcXfbrg-61" value="Conclui assinatura do Termo de Cessão" style="whiteSpace=wrap;html=1;rounded=1;labelBackgroundColor=none;" parent="dNxyNK7c78bLwvsdeMH5-22" vertex="1">
          <mxGeometry x="2190" y="135" width="120" height="60" as="geometry" />
        </mxCell>
        <mxCell id="GoYFg1bczMCrbbcXfbrg-66" value="" style="edgeStyle=orthogonalEdgeStyle;rounded=1;orthogonalLoop=1;jettySize=auto;html=1;labelBackgroundColor=none;fontColor=default;" parent="dNxyNK7c78bLwvsdeMH5-22" source="GoYFg1bczMCrbbcXfbrg-63" target="GoYFg1bczMCrbbcXfbrg-65" edge="1">
          <mxGeometry relative="1" as="geometry" />
        </mxCell>
        <mxCell id="GoYFg1bczMCrbbcXfbrg-63" value="Processamento da Cessão no sistema" style="whiteSpace=wrap;html=1;rounded=1;labelBackgroundColor=none;" parent="dNxyNK7c78bLwvsdeMH5-22" vertex="1">
          <mxGeometry x="2320" y="210" width="120" height="60" as="geometry" />
        </mxCell>
        <mxCell id="GoYFg1bczMCrbbcXfbrg-68" value="" style="edgeStyle=orthogonalEdgeStyle;rounded=1;orthogonalLoop=1;jettySize=auto;html=1;labelBackgroundColor=none;fontColor=default;" parent="dNxyNK7c78bLwvsdeMH5-22" source="GoYFg1bczMCrbbcXfbrg-65" target="GoYFg1bczMCrbbcXfbrg-67" edge="1">
          <mxGeometry relative="1" as="geometry" />
        </mxCell>
        <mxCell id="GoYFg1bczMCrbbcXfbrg-65" value="Cessão Concluida" style="whiteSpace=wrap;html=1;rounded=1;labelBackgroundColor=none;" parent="dNxyNK7c78bLwvsdeMH5-22" vertex="1">
          <mxGeometry x="2450" y="280" width="120" height="60" as="geometry" />
        </mxCell>
        <mxCell id="GoYFg1bczMCrbbcXfbrg-67" value="" style="ellipse;whiteSpace=wrap;html=1;rounded=1;labelBackgroundColor=none;" parent="dNxyNK7c78bLwvsdeMH5-22" vertex="1">
          <mxGeometry x="2620" y="300" width="20" height="20" as="geometry" />
        </mxCell>
        <mxCell id="GoYFg1bczMCrbbcXfbrg-5" value="Fundo" style="swimlane;html=1;startSize=20;horizontal=0;rounded=1;labelBackgroundColor=none;" parent="dNxyNK7c78bLwvsdeMH5-19" vertex="1">
          <mxGeometry x="20" y="640" width="3300" height="160" as="geometry" />
        </mxCell>
        <mxCell id="GoYFg1bczMCrbbcXfbrg-21" value="" style="ellipse;whiteSpace=wrap;html=1;rounded=1;labelBackgroundColor=none;" parent="GoYFg1bczMCrbbcXfbrg-5" vertex="1">
          <mxGeometry x="295" y="85" width="30" height="30" as="geometry" />
        </mxCell>
        <mxCell id="GoYFg1bczMCrbbcXfbrg-46" value="Disponibiliza recursos na conta da SCD" style="whiteSpace=wrap;html=1;rounded=1;labelBackgroundColor=none;" parent="GoYFg1bczMCrbbcXfbrg-5" vertex="1">
          <mxGeometry x="1570" y="40" width="120" height="60" as="geometry" />
        </mxCell>
        <mxCell id="GoYFg1bczMCrbbcXfbrg-57" value="Assinatura Eletrônica do Termo de Cessão" style="whiteSpace=wrap;html=1;rounded=1;labelBackgroundColor=none;" parent="GoYFg1bczMCrbbcXfbrg-5" vertex="1">
          <mxGeometry x="1980" y="40" width="120" height="60" as="geometry" />
        </mxCell>
        <mxCell id="GoYFg1bczMCrbbcXfbrg-70" value="Geração de Recebíveis e emissão do boleto" style="whiteSpace=wrap;html=1;rounded=1;labelBackgroundColor=none;" parent="GoYFg1bczMCrbbcXfbrg-5" vertex="1">
          <mxGeometry x="2610" y="40" width="120" height="60" as="geometry" />
        </mxCell>
        <mxCell id="GoYFg1bczMCrbbcXfbrg-81" value="" style="edgeStyle=orthogonalEdgeStyle;rounded=1;orthogonalLoop=1;jettySize=auto;html=1;labelBackgroundColor=none;fontColor=default;" parent="GoYFg1bczMCrbbcXfbrg-5" source="GoYFg1bczMCrbbcXfbrg-78" target="GoYFg1bczMCrbbcXfbrg-80" edge="1">
          <mxGeometry relative="1" as="geometry" />
        </mxCell>
        <mxCell id="GoYFg1bczMCrbbcXfbrg-78" value="Credito C/C do Fundo" style="whiteSpace=wrap;html=1;rounded=1;labelBackgroundColor=none;" parent="GoYFg1bczMCrbbcXfbrg-5" vertex="1">
          <mxGeometry x="2920" y="40" width="120" height="60" as="geometry" />
        </mxCell>
        <mxCell id="GoYFg1bczMCrbbcXfbrg-80" value="" style="ellipse;whiteSpace=wrap;html=1;rounded=1;labelBackgroundColor=none;" parent="GoYFg1bczMCrbbcXfbrg-5" vertex="1">
          <mxGeometry x="3138" y="55" width="30" height="30" as="geometry" />
        </mxCell>
        <mxCell id="GoYFg1bczMCrbbcXfbrg-14" value="" style="edgeStyle=orthogonalEdgeStyle;rounded=1;orthogonalLoop=1;jettySize=auto;html=1;labelBackgroundColor=none;fontColor=default;" parent="dNxyNK7c78bLwvsdeMH5-19" source="GoYFg1bczMCrbbcXfbrg-9" target="GoYFg1bczMCrbbcXfbrg-13" edge="1">
          <mxGeometry relative="1" as="geometry" />
        </mxCell>
        <mxCell id="GoYFg1bczMCrbbcXfbrg-20" value="" style="edgeStyle=orthogonalEdgeStyle;rounded=1;orthogonalLoop=1;jettySize=auto;html=1;labelBackgroundColor=none;fontColor=default;entryX=0.5;entryY=0;entryDx=0;entryDy=0;" parent="dNxyNK7c78bLwvsdeMH5-19" source="GoYFg1bczMCrbbcXfbrg-15" target="GoYFg1bczMCrbbcXfbrg-19" edge="1">
          <mxGeometry relative="1" as="geometry" />
        </mxCell>
        <mxCell id="GoYFg1bczMCrbbcXfbrg-22" value="" style="edgeStyle=orthogonalEdgeStyle;rounded=1;orthogonalLoop=1;jettySize=auto;html=1;labelBackgroundColor=none;fontColor=default;exitX=0.5;exitY=1;exitDx=0;exitDy=0;" parent="dNxyNK7c78bLwvsdeMH5-19" source="GoYFg1bczMCrbbcXfbrg-19" target="GoYFg1bczMCrbbcXfbrg-21" edge="1">
          <mxGeometry relative="1" as="geometry" />
        </mxCell>
        <mxCell id="GoYFg1bczMCrbbcXfbrg-23" value="Recusado" style="edgeLabel;html=1;align=center;verticalAlign=middle;resizable=0;points=[];rounded=1;labelBackgroundColor=none;" parent="GoYFg1bczMCrbbcXfbrg-22" vertex="1" connectable="0">
          <mxGeometry x="0.0454" y="1" relative="1" as="geometry">
            <mxPoint x="-31" y="15" as="offset" />
          </mxGeometry>
        </mxCell>
        <mxCell id="GoYFg1bczMCrbbcXfbrg-28" value="" style="edgeStyle=orthogonalEdgeStyle;rounded=1;orthogonalLoop=1;jettySize=auto;html=1;labelBackgroundColor=none;fontColor=default;" parent="dNxyNK7c78bLwvsdeMH5-19" source="GoYFg1bczMCrbbcXfbrg-24" target="GoYFg1bczMCrbbcXfbrg-27" edge="1">
          <mxGeometry relative="1" as="geometry" />
        </mxCell>
        <mxCell id="GoYFg1bczMCrbbcXfbrg-37" value="" style="edgeStyle=orthogonalEdgeStyle;rounded=1;orthogonalLoop=1;jettySize=auto;html=1;labelBackgroundColor=none;fontColor=default;" parent="dNxyNK7c78bLwvsdeMH5-19" source="GoYFg1bczMCrbbcXfbrg-31" target="GoYFg1bczMCrbbcXfbrg-36" edge="1">
          <mxGeometry relative="1" as="geometry" />
        </mxCell>
        <mxCell id="GoYFg1bczMCrbbcXfbrg-41" value="" style="edgeStyle=orthogonalEdgeStyle;rounded=1;orthogonalLoop=1;jettySize=auto;html=1;labelBackgroundColor=none;fontColor=default;" parent="dNxyNK7c78bLwvsdeMH5-19" source="GoYFg1bczMCrbbcXfbrg-38" target="GoYFg1bczMCrbbcXfbrg-40" edge="1">
          <mxGeometry relative="1" as="geometry" />
        </mxCell>
        <mxCell id="GoYFg1bczMCrbbcXfbrg-43" value="" style="edgeStyle=orthogonalEdgeStyle;rounded=1;orthogonalLoop=1;jettySize=auto;html=1;labelBackgroundColor=none;fontColor=default;exitX=1;exitY=0.5;exitDx=0;exitDy=0;" parent="dNxyNK7c78bLwvsdeMH5-19" source="GoYFg1bczMCrbbcXfbrg-40" target="GoYFg1bczMCrbbcXfbrg-42" edge="1">
          <mxGeometry relative="1" as="geometry" />
        </mxCell>
        <mxCell id="GoYFg1bczMCrbbcXfbrg-47" value="" style="edgeStyle=orthogonalEdgeStyle;rounded=1;orthogonalLoop=1;jettySize=auto;html=1;labelBackgroundColor=none;fontColor=default;" parent="dNxyNK7c78bLwvsdeMH5-19" source="GoYFg1bczMCrbbcXfbrg-44" target="GoYFg1bczMCrbbcXfbrg-46" edge="1">
          <mxGeometry relative="1" as="geometry" />
        </mxCell>
        <mxCell id="GoYFg1bczMCrbbcXfbrg-49" value="" style="edgeStyle=orthogonalEdgeStyle;rounded=1;orthogonalLoop=1;jettySize=auto;html=1;labelBackgroundColor=none;fontColor=default;" parent="dNxyNK7c78bLwvsdeMH5-19" source="GoYFg1bczMCrbbcXfbrg-46" target="GoYFg1bczMCrbbcXfbrg-48" edge="1">
          <mxGeometry relative="1" as="geometry" />
        </mxCell>
        <mxCell id="GoYFg1bczMCrbbcXfbrg-58" value="" style="edgeStyle=orthogonalEdgeStyle;rounded=1;orthogonalLoop=1;jettySize=auto;html=1;labelBackgroundColor=none;fontColor=default;" parent="dNxyNK7c78bLwvsdeMH5-19" source="GoYFg1bczMCrbbcXfbrg-54" target="GoYFg1bczMCrbbcXfbrg-57" edge="1">
          <mxGeometry relative="1" as="geometry" />
        </mxCell>
        <mxCell id="GoYFg1bczMCrbbcXfbrg-62" value="" style="edgeStyle=orthogonalEdgeStyle;rounded=1;orthogonalLoop=1;jettySize=auto;html=1;labelBackgroundColor=none;fontColor=default;" parent="dNxyNK7c78bLwvsdeMH5-19" source="GoYFg1bczMCrbbcXfbrg-57" target="GoYFg1bczMCrbbcXfbrg-61" edge="1">
          <mxGeometry relative="1" as="geometry" />
        </mxCell>
        <mxCell id="GoYFg1bczMCrbbcXfbrg-71" value="" style="edgeStyle=orthogonalEdgeStyle;rounded=1;orthogonalLoop=1;jettySize=auto;html=1;labelBackgroundColor=none;fontColor=default;" parent="dNxyNK7c78bLwvsdeMH5-19" source="GoYFg1bczMCrbbcXfbrg-59" target="GoYFg1bczMCrbbcXfbrg-70" edge="1">
          <mxGeometry relative="1" as="geometry" />
        </mxCell>
        <mxCell id="GoYFg1bczMCrbbcXfbrg-77" value="" style="edgeStyle=orthogonalEdgeStyle;rounded=1;orthogonalLoop=1;jettySize=auto;html=1;labelBackgroundColor=none;fontColor=default;" parent="dNxyNK7c78bLwvsdeMH5-19" source="GoYFg1bczMCrbbcXfbrg-70" target="GoYFg1bczMCrbbcXfbrg-76" edge="1">
          <mxGeometry relative="1" as="geometry" />
        </mxCell>
        <mxCell id="GoYFg1bczMCrbbcXfbrg-79" value="" style="edgeStyle=orthogonalEdgeStyle;rounded=1;orthogonalLoop=1;jettySize=auto;html=1;labelBackgroundColor=none;fontColor=default;" parent="dNxyNK7c78bLwvsdeMH5-19" source="GoYFg1bczMCrbbcXfbrg-76" target="GoYFg1bczMCrbbcXfbrg-78" edge="1">
          <mxGeometry relative="1" as="geometry" />
        </mxCell>
      </root>
    </mxGraphModel>
  </diagram>
</mxfile>
